Coordinates
version=1
nRows=60
nColumns=12
inDegrees=yes

Units are S.I. units (second, meters, Newtons, ...)
Angles are in degrees

endheader
time	SC_y	SC_z	SC_x	AC_y	AC_z	AC_x	GH_y	GH_z	GH_yy	EL_x	PS_y
       0.0              -59.18          32.43          44.84          49.88          5.065           19.7          58.46          70.04          55.35           6.59          110.7
   0.04566              -59.18          32.42          44.84          49.88          5.064           19.7          58.48          70.04          55.36          6.607          110.7
   0.09131              -59.17          32.42          44.83          49.88          5.063          19.69           58.5          70.03          55.37          6.626          110.7
     0.137              -59.16          32.41          44.83          49.88          5.061          19.69          58.51          70.02          55.37          6.646          110.7
    0.1826              -59.15          32.41          44.82          49.88           5.06          19.69          58.53          70.02          55.38          6.667          110.7
    0.2283              -59.14           32.4          44.82          49.87          5.058          19.69          58.55          70.01          55.39           6.69          110.7
    0.2739              -59.13          32.39          44.81          49.87          5.057          19.69          58.58           70.0          55.39          6.714          110.6
    0.3196              -59.12          32.38          44.81          49.87          5.055          19.68           58.6          69.99           55.4           6.74          110.6
    0.3652              -59.11          32.38           44.8          49.87          5.053          19.68          58.62          69.98          55.41          6.768          110.6
    0.4109               -59.1          32.37           44.8          49.87          5.051          19.68          58.65          69.97          55.42          6.798          110.6
    0.4566              -59.09          32.36          44.79          49.86          5.049          19.68          58.68          69.96          55.43           6.83          110.6
    0.5022              -59.08          32.35          44.78          49.86          5.047          19.67          58.71          69.95          55.44          6.864          110.5
    0.5479              -59.06          32.34          44.77          49.86          5.044          19.67          58.74          69.94          55.45          6.901          110.5
    0.5935              -59.05          32.32          44.76          49.86          5.042          19.67          58.78          69.93          55.47          6.941          110.5
    0.6392              -59.03          32.31          44.75          49.85          5.039          19.66          58.82          69.91          55.48          6.985          110.4
    0.6848              -59.01           32.3          44.74          49.85          5.035          19.66          58.86           69.9           55.5          7.032          110.4
    0.7305              -58.99          32.28          44.73          49.85          5.032          19.66          58.91          69.88          55.51          7.083          110.4
    0.7761              -58.97          32.26          44.72          49.84          5.028          19.65          58.96          69.86          55.53          7.138          110.3
    0.8218              -58.95          32.25           44.7          49.84          5.024          19.65          59.01          69.84          55.55          7.199          110.3
    0.8675              -58.92          32.23          44.69          49.83           5.02          19.64          59.07          69.82          55.57          7.266          110.2
    0.9131               -58.9           32.2          44.67          49.83          5.015          19.63          59.14           69.8          55.59          7.339          110.2
    0.9588              -58.87          32.18          44.65          49.82           5.01          19.63          59.21          69.77          55.62          7.419          110.1
     1.004              -58.83          32.15          44.63          49.82          5.004          19.62          59.29          69.74          55.65          7.508          110.1
      1.05               -58.8          32.12          44.61          49.81          4.997          19.61          59.38          69.71          55.68          7.606          110.0
     1.096              -58.75          32.09          44.59           49.8           4.99           19.6          59.48          69.68          55.72          7.716          109.9
     1.141              -58.71          32.06          44.56          49.79          4.982          19.59          59.59          69.64          55.76          7.838          109.8
     1.187              -58.66          32.01          44.53          49.79          4.972          19.58          59.71          69.59           55.8          7.974          109.7
     1.233               -58.6          31.97          44.49          49.77          4.962          19.57          59.85          69.54          55.85          8.128          109.6
     1.278              -58.53          31.92          44.45          49.76          4.951          19.55          60.01          69.49           55.9          8.302          109.5
     1.324              -58.46          31.86          44.41          49.75          4.937          19.54          60.18          69.42          55.97          8.499          109.3
      1.37              -58.37          31.79          44.36          49.73          4.922          19.52          60.39          69.35          56.04          8.725          109.2
     1.415              -58.27          31.71           44.3          49.72          4.905          19.49          60.62          69.27          56.12          8.983          109.0
     1.461              -58.16          31.62          44.23           49.7          4.885          19.47          60.89          69.17          56.22          9.282          108.7
     1.507              -58.03          31.52          44.15          49.67          4.862          19.44           61.2          69.06          56.33          9.628          108.5
     1.552              -57.87           31.4          44.06          49.64          4.835           19.4          61.57          68.93          56.46          10.03          108.2
     1.598              -57.69          31.25          43.95          49.61          4.803          19.36           62.0          68.77          56.61          10.51          107.8
     1.644              -57.48          31.08          43.83          49.57          4.765          19.32          62.51          68.59           56.8          11.08          107.4
     1.689              -57.22          30.88          43.67          49.53          4.719          19.26          63.12          68.36          57.02          11.76          106.9
     1.735               -56.9          30.63          43.49          49.47          4.664          19.19          63.86           68.1          57.28          12.59          106.3
     1.781              -56.52          30.33          43.26           49.4          4.597           19.1          64.77          67.77          57.61          13.59          105.5
     1.826              -56.05          29.96          42.98          49.31          4.514           19.0          65.89          67.37           58.0          14.84          104.6
     1.872              -55.46          29.49          42.63          49.21           4.41          18.86          67.29          66.87           58.5          16.39          103.5
     1.918              -54.72          28.91          42.18          49.07          4.279           18.7          69.04          66.23          59.13          18.34          102.0
     1.963              -53.77          28.16          41.62           48.9          4.113          18.49          71.28          65.43          59.93          20.82          100.2
     2.009              -52.57          27.21          40.91          48.68          3.901          18.22          74.14           64.4          60.95           24.0          97.82
     2.055              -51.02          25.99          39.98           48.4          3.628          17.87          77.81          63.08          62.26          28.07          94.79
       2.1              -49.04          24.43          38.81          48.05           3.28          17.43           82.5          61.39          63.93          33.28          90.93
     2.146              -46.55          22.46          37.32           47.6          2.842          16.87          88.39          59.26          66.04          39.83          86.07
     2.191              -43.52          20.07          35.52          47.05          2.309          16.19          95.58          56.68           68.6          47.81          80.14
     2.237              -40.01           17.3          33.43          46.41           1.69           15.4          103.9          53.68          71.58          57.05          73.28
     2.283               -36.2          14.29          31.16          45.73          1.021          14.55          112.9          50.43           74.8          67.07          65.84
     2.328               -32.4          11.29           28.9          45.04          0.351           13.7          121.9          47.18          78.02          77.08          58.41
     2.374              -28.88          8.518          26.81           44.4        -0.2675          12.91          130.3          44.18          80.99          86.33          51.54
      2.42              -25.85          6.125           25.0          43.86         -0.801          12.23          137.5          41.59          83.55          94.31          45.62
     2.465              -23.36          4.162          23.52          43.41         -1.239          11.68          143.4          39.47          85.66          100.9          40.76
     2.511              -21.39          2.601          22.34          43.05         -1.587          11.23          148.0          37.78          87.33          106.1          36.89
     2.557              -19.84          1.378          21.42          42.77          -1.86          10.89          151.7          36.46          88.64          110.1          33.86
     2.602              -18.63         0.4256           20.7          42.55         -2.072          10.62          154.6          35.43          89.67          113.3          31.51
     2.648              -17.69        -0.3186          20.14          42.38         -2.238          10.41          156.8          34.63          90.46          115.8          29.66
     2.694              -16.94         -0.904           19.7          42.25         -2.369          10.24          158.6          33.99          91.09          117.8          28.21
